<svg width="33" height="26" viewBox="0 0 33 26" fill="none" xmlns="http://www.w3.org/2000/svg">
<path d="M11.05 12.275C13.525 13.325 15.025 15.575 15.025 18.65C15.025 23 11.95 25.85 7.825 25.85C3.625 25.85 0.55 22.925 0.55 18.65C0.55 16.7 0.85 15.275 2.575 11.15L6.925 0.349997H14.35L11.05 12.275ZM28.75 12.275C31.225 13.325 32.725 15.575 32.725 18.65C32.725 23 29.65 25.85 25.525 25.85C21.325 25.85 18.25 22.925 18.25 18.65C18.25 16.7 18.55 15.275 20.275 11.15L24.625 0.349997H32.05L28.75 12.275Z" fill="#582D86"/>
</svg>
